<svg xmlns="http://www.w3.org/2000/svg" viewBox="0 0 8.16 24"><defs><style>.cls-1{fill:#13120d;}</style></defs><title>Beer</title><g id="Layer_2" data-name="Layer 2"><g id="Layer_1-2" data-name="Layer 1"><path class="cls-1" d="M0,19.27c0,1.09-.15,3.14.7,4s2.45.58,3.63.65,2.89.27,3.47-1a41,41,0,0,0,0-10.43A3.46,3.46,0,0,0,7,11.06c-.8-1.06-.34-2.48-.4-3.69A13.07,13.07,0,0,0,6.1,4.26a1.55,1.55,0,0,1-.07-1c.16-.3.55-.41.7-.85A1.76,1.76,0,0,0,5.35.2,4.86,4.86,0,0,0,3.53,0,2.39,2.39,0,0,0,2.16.54a1.71,1.71,0,0,0-.63,1.08,1.24,1.24,0,0,0,.35,1.2c.45.41.39.88.22,1.44a13.07,13.07,0,0,0-.53,3.11c0,.62.11,1.27.05,1.9a3.42,3.42,0,0,1-.81,1.61A3.32,3.32,0,0,0,0,12.82C0,13.56,0,18.18,0,19.27Z"/></g></g></svg>